<?xml version="1.0" encoding="UTF-8" standalone="no"?>
<!-- Created with Inkscape (http://www.inkscape.org/) -->

<svg
   xmlns:dc="http://purl.org/dc/elements/1.1/"
   xmlns:cc="http://creativecommons.org/ns#"
   xmlns:rdf="http://www.w3.org/1999/02/22-rdf-syntax-ns#"
   xmlns:svg="http://www.w3.org/2000/svg"
   xmlns="http://www.w3.org/2000/svg"
   xmlns:sodipodi="http://sodipodi.sourceforge.net/DTD/sodipodi-0.dtd"
   xmlns:inkscape="http://www.inkscape.org/namespaces/inkscape"
   width="744.09448819"
   height="1052.3622047"
   id="svg2"
   version="1.1"
   inkscape:version="0.48.4 r9939"
   sodipodi:docname="New document 1">
  <sodipodi:namedview
     id="base"
     pagecolor="#ffffff"
     bordercolor="#666666"
     borderopacity="1.0"
     inkscape:pageopacity="0.0"
     inkscape:pageshadow="2"
     inkscape:zoom="1.3242672"
     inkscape:cx="243"
     inkscape:cy="666.85157"
     inkscape:document-units="px"
     inkscape:current-layer="layer1"
     showgrid="false"
     inkscape:snap-to-guides="false"
     inkscape:snap-grids="true"
     inkscape:snap-page="false"
     inkscape:window-width="1855"
     inkscape:window-height="1056"
     inkscape:window-x="65"
     inkscape:window-y="24"
     inkscape:window-maximized="1" />
  <defs
     id="defs4" />
  <metadata
     id="metadata7">
    <rdf:RDF>
      <cc:Work
         rdf:about="">
        <dc:format>image/svg+xml</dc:format>
        <dc:type
           rdf:resource="http://purl.org/dc/dcmitype/StillImage" />
        <dc:title></dc:title>
      </cc:Work>
    </rdf:RDF>
  </metadata>
  <g
     id="layer1"
     inkscape:groupmode="layer"
     inkscape:label="Layer 1">
    <rect
       y="78.362183"
       x="-298"
       height="160"
       width="428"
       id="rect2985"
       style="opacity:0;fill:#eeffaa;fill-opacity:1;stroke:#649488;stroke-opacity:1" />
    <rect
       y="184.36218"
       x="120"
       height="366"
       width="262"
       id="rect2987"
       style="opacity:0;fill:#eeffaa;fill-opacity:1;stroke:#649488;stroke-opacity:1" />
    <path
       inkscape:transform-center-y="-1.1607201"
       inkscape:transform-center-x="15.739486"
       d="M 427.1005,527.08883 C 441.13419,507.49756 164.79141,413.87403 187.57066,406.16007 210.3499,398.4461 48.030163,640.09623 71.017506,647.31879 94.00485,654.54135 98.065083,365.45736 112.47188,384.8048 c 14.40681,19.34744 -265.42591,-60.08189 -265.29435,-35.94768 0.13156,24.13421 278.0926,-61.27172 264.07337,-41.73738 C 97.231665,326.65408 87.205968,35.113554 64.428617,42.957473 41.651265,50.801392 210.15113,287.65652 187.14238,280.53525 164.13362,273.41398 436.62626,174.28838 422.27872,154.93781 407.93118,135.58724 231.50506,368.53606 231.14805,344.48076 230.79103,320.42545 413.0668,546.68009 427.1005,527.08883 z"
       inkscape:randomized="0.005"
       inkscape:rounded="-0.09"
       inkscape:flatsided="false"
       sodipodi:arg2="1.2441885"
       sodipodi:arg1="0.61586995"
       sodipodi:r2="66.460075"
       sodipodi:r1="318.52159"
       sodipodi:cy="344.36218"
       sodipodi:cx="166"
       sodipodi:sides="5"
       id="path2989"
       style="opacity:0;fill:#eeffaa;fill-opacity:1;stroke:#649488;stroke-opacity:1"
       sodipodi:type="star" />
    <path
       inkscape:transform-center-y="9.5744701"
       inkscape:transform-center-x="-4.666608"
       d="M 744.39839,563.94796 C 758.03941,548.417 500.28896,605.11635 519.14465,613.54932 538.00033,621.98228 406.13731,395.45841 403.96801,416.02849 401.7987,436.59856 577.2114,239.35318 556.97336,243.78651 c -20.23803,4.43332 220.83247,109.37508 210.38399,91.53633 -10.44848,-17.83876 -36.59999,244.15608 -22.95896,228.62512 z"
       inkscape:randomized="0.005"
       inkscape:rounded="-0.09"
       inkscape:flatsided="true"
       sodipodi:arg2="1.3554892"
       sodipodi:arg1="0.72717067"
       sodipodi:r2="31.018307"
       sodipodi:r1="195.55969"
       sodipodi:cy="434.36218"
       sodipodi:cx="598"
       sodipodi:sides="5"
       id="path2991"
       style="opacity:0;fill:#eeffaa;fill-opacity:1;stroke:#649488;stroke-opacity:1"
       sodipodi:type="star" />
    <path
       d="m 394,135.36218 a 47,35 0 1 1 -94,0 47,35 0 1 1 94,0 z"
       sodipodi:ry="35"
       sodipodi:rx="47"
       sodipodi:cy="135.36218"
       sodipodi:cx="347"
       id="path2999"
       style="opacity:0;fill:#eeffaa;fill-opacity:1;stroke:#649488;stroke-opacity:1"
       sodipodi:type="arc" />
    <path
       d="m 412,158.36218 a 9,58 0 1 1 -18,0 9,58 0 1 1 18,0 z"
       sodipodi:ry="58"
       sodipodi:rx="9"
       sodipodi:cy="158.36218"
       sodipodi:cx="403"
       id="path3001"
       style="opacity:0;fill:#eeffaa;fill-opacity:1;stroke:#649488;stroke-opacity:1"
       sodipodi:type="arc" />
    <path
       d="m 652,227.36218 a 134,63 0 1 1 -268,0 134,63 0 1 1 268,0 z"
       sodipodi:ry="63"
       sodipodi:rx="134"
       sodipodi:cy="227.36218"
       sodipodi:cx="518"
       id="path3005"
       style="opacity:0;fill:#eeffaa;fill-opacity:1;stroke:#649488;stroke-opacity:1"
       sodipodi:type="arc" />
    <path
       d="m 784,458.36218 a 174,64 0 1 1 -348,0 174,64 0 1 1 348,0 z"
       sodipodi:ry="64"
       sodipodi:rx="174"
       sodipodi:cy="458.36218"
       sodipodi:cx="610"
       id="path3007"
       style="opacity:0;fill:#eeffaa;fill-opacity:1;stroke:#649488;stroke-opacity:1"
       sodipodi:type="arc" />
    <path
       d="M92.9672028 423.961730585C92.9672008036 518.69598811 143.507324661 606.23405283 225.549598387 653.601182169C307.591872113 700.968311508 408.672122287 700.968311508 490.714396013 653.601182169C572.756669739 606.23405283 623.296793596 518.69598811 623.2967916 423.961730585C623.2967916 329.227474391 572.756667306 241.689411755 490.7143944 194.322283658C408.672121494 146.955155561 307.591872906 146.955155561 225.5496 194.322283658C143.507327094 241.689411755 92.9672028 329.227474391 92.9672028 423.961730585C92.9672028 423.961730585 92.9672028 423.961730585 92.9672028 423.961730585"
       id="path3009"
       style="fill:#0000ff;fill-rule:evenodd;stroke:#000000;stroke-width:1px;stroke-linecap:butt;stroke-linejoin:miter;stroke-opacity:1" />
    <g
       id="g3579">
      <path
         transform="matrix(1.000000,0.000000,0.000000,1.000000,32.263570,-251.274669)"
         id="path3929"
         style="fill:#ffff00;fill-rule:evenodd;stroke:#000000;stroke-width:1px;stroke-linecap:butt;stroke-linejoin:miter;stroke-opacity:1"
         d="m 86.776953,713.543 c -0.05198,0.0383 -1.21444,-0.69273 -3.019477,-1.87011 -1.542148,-1.00591 -3.553339,-2.33766 -5.74173,-3.79392 -2.927276,-1.94793 -6.171621,-4.11864 -9.034629,-6.03029 -4.368003,-2.91654 -7.848364,-5.23006 -7.96084,-5.22937 -0.0813,4.8e-4 -1.8699,1.26594 -4.45688,3.12038 -4.359478,3.12503 -10.986212,7.92265 -15.530734,11.15802 -2.901957,2.06599 -4.954869,3.49495 -5.026202,3.44457 -0.135332,-0.0956 2.261022,-8.70388 4.464357,-16.60072 1.855517,-6.65026 3.574145,-12.79596 3.528552,-12.92799 -0.04704,-0.13608 -5.482886,-4.20753 -11.210029,-8.50664 -6.429026,-4.82598 -13.225049,-9.93883 -13.177126,-10.09368 0.04492,-0.14522 7.504094,-0.41928 15.041865,-0.68107 7.660223,-0.26605 15.401641,-0.51941 15.525368,-0.61195 0.150326,-0.11249 3.750092,-10.8876 6.587389,-19.22185 1.794889,-5.27229 3.284661,-9.56777 3.403045,-9.56915 0.283073,-0.003 9.160249,24.22279 10.663077,27.92234 0.119195,0.29343 0.192003,0.45773 0.210453,0.47057 0.251026,0.17476 30.652678,0.41117 30.751588,0.70137 0.0445,0.13049 -4.803903,3.90657 -10.162392,8.04994 -6.558643,5.07137 -13.881485,10.69303 -13.932137,10.8538 -0.09209,0.2921 9.322852,29.23441 9.076482,29.41575" />
      <path
         transform="matrix(1.000000,0.000000,0.000000,1.000000,45.325006,-169.174083)"
         id="path8440"
         style="fill:#ffff00;fill-rule:evenodd;stroke:#000000;stroke-width:1px;stroke-linecap:butt;stroke-linejoin:miter;stroke-opacity:1"
         d="m 86.776953,713.543 c -0.05198,0.0383 -1.21444,-0.69273 -3.019477,-1.87011 -1.542148,-1.00591 -3.553339,-2.33766 -5.74173,-3.79392 -2.927276,-1.94793 -6.171621,-4.11864 -9.034629,-6.03029 -4.368003,-2.91654 -7.848364,-5.23006 -7.96084,-5.22937 -0.0813,4.8e-4 -1.8699,1.26594 -4.45688,3.12038 -4.359478,3.12503 -10.986212,7.92265 -15.530734,11.15802 -2.901957,2.06599 -4.954869,3.49495 -5.026202,3.44457 -0.135332,-0.0956 2.261022,-8.70388 4.464357,-16.60072 1.855517,-6.65026 3.574145,-12.79596 3.528552,-12.92799 -0.04704,-0.13608 -5.482886,-4.20753 -11.210029,-8.50664 -6.429026,-4.82598 -13.225049,-9.93883 -13.177126,-10.09368 0.04492,-0.14522 7.504094,-0.41928 15.041865,-0.68107 7.660223,-0.26605 15.401641,-0.51941 15.525368,-0.61195 0.150326,-0.11249 3.750092,-10.8876 6.587389,-19.22185 1.794889,-5.27229 3.284661,-9.56777 3.403045,-9.56915 0.283073,-0.003 9.160249,24.22279 10.663077,27.92234 0.119195,0.29343 0.192003,0.45773 0.210453,0.47057 0.251026,0.17476 30.652678,0.41117 30.751588,0.70137 0.0445,0.13049 -4.803903,3.90657 -10.162392,8.04994 -6.558643,5.07137 -13.881485,10.69303 -13.932137,10.8538 -0.09209,0.2921 9.322852,29.23441 9.076482,29.41575" />
      <path
         transform="matrix(1.000000,0.000000,0.000000,1.000000,83.136585,-95.141555)"
         id="path5069"
         style="fill:#ffff00;fill-rule:evenodd;stroke:#000000;stroke-width:1px;stroke-linecap:butt;stroke-linejoin:miter;stroke-opacity:1"
         d="m 86.776953,713.543 c -0.05198,0.0383 -1.21444,-0.69273 -3.019477,-1.87011 -1.542148,-1.00591 -3.553339,-2.33766 -5.74173,-3.79392 -2.927276,-1.94793 -6.171621,-4.11864 -9.034629,-6.03029 -4.368003,-2.91654 -7.848364,-5.23006 -7.96084,-5.22937 -0.0813,4.8e-4 -1.8699,1.26594 -4.45688,3.12038 -4.359478,3.12503 -10.986212,7.92265 -15.530734,11.15802 -2.901957,2.06599 -4.954869,3.49495 -5.026202,3.44457 -0.135332,-0.0956 2.261022,-8.70388 4.464357,-16.60072 1.855517,-6.65026 3.574145,-12.79596 3.528552,-12.92799 -0.04704,-0.13608 -5.482886,-4.20753 -11.210029,-8.50664 -6.429026,-4.82598 -13.225049,-9.93883 -13.177126,-10.09368 0.04492,-0.14522 7.504094,-0.41928 15.041865,-0.68107 7.660223,-0.26605 15.401641,-0.51941 15.525368,-0.61195 0.150326,-0.11249 3.750092,-10.8876 6.587389,-19.22185 1.794889,-5.27229 3.284661,-9.56777 3.403045,-9.56915 0.283073,-0.003 9.160249,24.22279 10.663077,27.92234 0.119195,0.29343 0.192003,0.45773 0.210453,0.47057 0.251026,0.17476 30.652678,0.41117 30.751588,0.70137 0.0445,0.13049 -4.803903,3.90657 -10.162392,8.04994 -6.558643,5.07137 -13.881485,10.69303 -13.932137,10.8538 -0.09209,0.2921 9.322852,29.23441 9.076482,29.41575" />
      <path
         transform="matrix(1.000000,0.000000,0.000000,1.000000,142.006242,-36.444437)"
         id="path6200"
         style="fill:#ffff00;fill-rule:evenodd;stroke:#000000;stroke-width:1px;stroke-linecap:butt;stroke-linejoin:miter;stroke-opacity:1"
         d="m 86.776953,713.543 c -0.05198,0.0383 -1.21444,-0.69273 -3.019477,-1.87011 -1.542148,-1.00591 -3.553339,-2.33766 -5.74173,-3.79392 -2.927276,-1.94793 -6.171621,-4.11864 -9.034629,-6.03029 -4.368003,-2.91654 -7.848364,-5.23006 -7.96084,-5.22937 -0.0813,4.8e-4 -1.8699,1.26594 -4.45688,3.12038 -4.359478,3.12503 -10.986212,7.92265 -15.530734,11.15802 -2.901957,2.06599 -4.954869,3.49495 -5.026202,3.44457 -0.135332,-0.0956 2.261022,-8.70388 4.464357,-16.60072 1.855517,-6.65026 3.574145,-12.79596 3.528552,-12.92799 -0.04704,-0.13608 -5.482886,-4.20753 -11.210029,-8.50664 -6.429026,-4.82598 -13.225049,-9.93883 -13.177126,-10.09368 0.04492,-0.14522 7.504094,-0.41928 15.041865,-0.68107 7.660223,-0.26605 15.401641,-0.51941 15.525368,-0.61195 0.150326,-0.11249 3.750092,-10.8876 6.587389,-19.22185 1.794889,-5.27229 3.284661,-9.56777 3.403045,-9.56915 0.283073,-0.003 9.160249,24.22279 10.663077,27.92234 0.119195,0.29343 0.192003,0.45773 0.210453,0.47057 0.251026,0.17476 30.652678,0.41117 30.751588,0.70137 0.0445,0.13049 -4.803903,3.90657 -10.162392,8.04994 -6.558643,5.07137 -13.881485,10.69303 -13.932137,10.8538 -0.09209,0.2921 9.322852,29.23441 9.076482,29.41575" />
      <path
         transform="matrix(1.000000,0.000000,0.000000,1.000000,216.175239,1.104682)"
         id="path0903"
         style="fill:#ffff00;fill-rule:evenodd;stroke:#000000;stroke-width:1px;stroke-linecap:butt;stroke-linejoin:miter;stroke-opacity:1"
         d="m 86.776953,713.543 c -0.05198,0.0383 -1.21444,-0.69273 -3.019477,-1.87011 -1.542148,-1.00591 -3.553339,-2.33766 -5.74173,-3.79392 -2.927276,-1.94793 -6.171621,-4.11864 -9.034629,-6.03029 -4.368003,-2.91654 -7.848364,-5.23006 -7.96084,-5.22937 -0.0813,4.8e-4 -1.8699,1.26594 -4.45688,3.12038 -4.359478,3.12503 -10.986212,7.92265 -15.530734,11.15802 -2.901957,2.06599 -4.954869,3.49495 -5.026202,3.44457 -0.135332,-0.0956 2.261022,-8.70388 4.464357,-16.60072 1.855517,-6.65026 3.574145,-12.79596 3.528552,-12.92799 -0.04704,-0.13608 -5.482886,-4.20753 -11.210029,-8.50664 -6.429026,-4.82598 -13.225049,-9.93883 -13.177126,-10.09368 0.04492,-0.14522 7.504094,-0.41928 15.041865,-0.68107 7.660223,-0.26605 15.401641,-0.51941 15.525368,-0.61195 0.150326,-0.11249 3.750092,-10.8876 6.587389,-19.22185 1.794889,-5.27229 3.284661,-9.56777 3.403045,-9.56915 0.283073,-0.003 9.160249,24.22279 10.663077,27.92234 0.119195,0.29343 0.192003,0.45773 0.210453,0.47057 0.251026,0.17476 30.652678,0.41117 30.751588,0.70137 0.0445,0.13049 -4.803903,3.90657 -10.162392,8.04994 -6.558643,5.07137 -13.881485,10.69303 -13.932137,10.8538 -0.09209,0.2921 9.322852,29.23441 9.076482,29.41575" />
      <path
         transform="matrix(1.000000,0.000000,0.000000,1.000000,298.319911,13.875714)"
         id="path2752"
         style="fill:#ffff00;fill-rule:evenodd;stroke:#000000;stroke-width:1px;stroke-linecap:butt;stroke-linejoin:miter;stroke-opacity:1"
         d="m 86.776953,713.543 c -0.05198,0.0383 -1.21444,-0.69273 -3.019477,-1.87011 -1.542148,-1.00591 -3.553339,-2.33766 -5.74173,-3.79392 -2.927276,-1.94793 -6.171621,-4.11864 -9.034629,-6.03029 -4.368003,-2.91654 -7.848364,-5.23006 -7.96084,-5.22937 -0.0813,4.8e-4 -1.8699,1.26594 -4.45688,3.12038 -4.359478,3.12503 -10.986212,7.92265 -15.530734,11.15802 -2.901957,2.06599 -4.954869,3.49495 -5.026202,3.44457 -0.135332,-0.0956 2.261022,-8.70388 4.464357,-16.60072 1.855517,-6.65026 3.574145,-12.79596 3.528552,-12.92799 -0.04704,-0.13608 -5.482886,-4.20753 -11.210029,-8.50664 -6.429026,-4.82598 -13.225049,-9.93883 -13.177126,-10.09368 0.04492,-0.14522 7.504094,-0.41928 15.041865,-0.68107 7.660223,-0.26605 15.401641,-0.51941 15.525368,-0.61195 0.150326,-0.11249 3.750092,-10.8876 6.587389,-19.22185 1.794889,-5.27229 3.284661,-9.56777 3.403045,-9.56915 0.283073,-0.003 9.160249,24.22279 10.663077,27.92234 0.119195,0.29343 0.192003,0.45773 0.210453,0.47057 0.251026,0.17476 30.652678,0.41117 30.751588,0.70137 0.0445,0.13049 -4.803903,3.90657 -10.162392,8.04994 -6.558643,5.07137 -13.881485,10.69303 -13.932137,10.8538 -0.09209,0.2921 9.322852,29.23441 9.076482,29.41575" />
      <path
         transform="matrix(1.000000,0.000000,0.000000,1.000000,380.380531,0.562925)"
         id="path6555"
         style="fill:#ffff00;fill-rule:evenodd;stroke:#000000;stroke-width:1px;stroke-linecap:butt;stroke-linejoin:miter;stroke-opacity:1"
         d="m 86.776953,713.543 c -0.05198,0.0383 -1.21444,-0.69273 -3.019477,-1.87011 -1.542148,-1.00591 -3.553339,-2.33766 -5.74173,-3.79392 -2.927276,-1.94793 -6.171621,-4.11864 -9.034629,-6.03029 -4.368003,-2.91654 -7.848364,-5.23006 -7.96084,-5.22937 -0.0813,4.8e-4 -1.8699,1.26594 -4.45688,3.12038 -4.359478,3.12503 -10.986212,7.92265 -15.530734,11.15802 -2.901957,2.06599 -4.954869,3.49495 -5.026202,3.44457 -0.135332,-0.0956 2.261022,-8.70388 4.464357,-16.60072 1.855517,-6.65026 3.574145,-12.79596 3.528552,-12.92799 -0.04704,-0.13608 -5.482886,-4.20753 -11.210029,-8.50664 -6.429026,-4.82598 -13.225049,-9.93883 -13.177126,-10.09368 0.04492,-0.14522 7.504094,-0.41928 15.041865,-0.68107 7.660223,-0.26605 15.401641,-0.51941 15.525368,-0.61195 0.150326,-0.11249 3.750092,-10.8876 6.587389,-19.22185 1.794889,-5.27229 3.284661,-9.56777 3.403045,-9.56915 0.283073,-0.003 9.160249,24.22279 10.663077,27.92234 0.119195,0.29343 0.192003,0.45773 0.210453,0.47057 0.251026,0.17476 30.652678,0.41117 30.751588,0.70137 0.0445,0.13049 -4.803903,3.90657 -10.162392,8.04994 -6.558643,5.07137 -13.881485,10.69303 -13.932137,10.8538 -0.09209,0.2921 9.322852,29.23441 9.076482,29.41575" />
      <path
         transform="matrix(1.000000,0.000000,0.000000,1.000000,454.281112,-37.509118)"
         id="path6213"
         style="fill:#ffff00;fill-rule:evenodd;stroke:#000000;stroke-width:1px;stroke-linecap:butt;stroke-linejoin:miter;stroke-opacity:1"
         d="m 86.776953,713.543 c -0.05198,0.0383 -1.21444,-0.69273 -3.019477,-1.87011 -1.542148,-1.00591 -3.553339,-2.33766 -5.74173,-3.79392 -2.927276,-1.94793 -6.171621,-4.11864 -9.034629,-6.03029 -4.368003,-2.91654 -7.848364,-5.23006 -7.96084,-5.22937 -0.0813,4.8e-4 -1.8699,1.26594 -4.45688,3.12038 -4.359478,3.12503 -10.986212,7.92265 -15.530734,11.15802 -2.901957,2.06599 -4.954869,3.49495 -5.026202,3.44457 -0.135332,-0.0956 2.261022,-8.70388 4.464357,-16.60072 1.855517,-6.65026 3.574145,-12.79596 3.528552,-12.92799 -0.04704,-0.13608 -5.482886,-4.20753 -11.210029,-8.50664 -6.429026,-4.82598 -13.225049,-9.93883 -13.177126,-10.09368 0.04492,-0.14522 7.504094,-0.41928 15.041865,-0.68107 7.660223,-0.26605 15.401641,-0.51941 15.525368,-0.61195 0.150326,-0.11249 3.750092,-10.8876 6.587389,-19.22185 1.794889,-5.27229 3.284661,-9.56777 3.403045,-9.56915 0.283073,-0.003 9.160249,24.22279 10.663077,27.92234 0.119195,0.29343 0.192003,0.45773 0.210453,0.47057 0.251026,0.17476 30.652678,0.41117 30.751588,0.70137 0.0445,0.13049 -4.803903,3.90657 -10.162392,8.04994 -6.558643,5.07137 -13.881485,10.69303 -13.932137,10.8538 -0.09209,0.2921 9.322852,29.23441 9.076482,29.41575" />
      <path
         transform="matrix(1.000000,0.000000,0.000000,1.000000,512.780622,-96.575304)"
         id="path7045"
         style="fill:#ffff00;fill-rule:evenodd;stroke:#000000;stroke-width:1px;stroke-linecap:butt;stroke-linejoin:miter;stroke-opacity:1"
         d="m 86.776953,713.543 c -0.05198,0.0383 -1.21444,-0.69273 -3.019477,-1.87011 -1.542148,-1.00591 -3.553339,-2.33766 -5.74173,-3.79392 -2.927276,-1.94793 -6.171621,-4.11864 -9.034629,-6.03029 -4.368003,-2.91654 -7.848364,-5.23006 -7.96084,-5.22937 -0.0813,4.8e-4 -1.8699,1.26594 -4.45688,3.12038 -4.359478,3.12503 -10.986212,7.92265 -15.530734,11.15802 -2.901957,2.06599 -4.954869,3.49495 -5.026202,3.44457 -0.135332,-0.0956 2.261022,-8.70388 4.464357,-16.60072 1.855517,-6.65026 3.574145,-12.79596 3.528552,-12.92799 -0.04704,-0.13608 -5.482886,-4.20753 -11.210029,-8.50664 -6.429026,-4.82598 -13.225049,-9.93883 -13.177126,-10.09368 0.04492,-0.14522 7.504094,-0.41928 15.041865,-0.68107 7.660223,-0.26605 15.401641,-0.51941 15.525368,-0.61195 0.150326,-0.11249 3.750092,-10.8876 6.587389,-19.22185 1.794889,-5.27229 3.284661,-9.56777 3.403045,-9.56915 0.283073,-0.003 9.160249,24.22279 10.663077,27.92234 0.119195,0.29343 0.192003,0.45773 0.210453,0.47057 0.251026,0.17476 30.652678,0.41117 30.751588,0.70137 0.0445,0.13049 -4.803903,3.90657 -10.162392,8.04994 -6.558643,5.07137 -13.881485,10.69303 -13.932137,10.8538 -0.09209,0.2921 9.322852,29.23441 9.076482,29.41575" />
      <path
         transform="matrix(1.000000,0.000000,0.000000,1.000000,550.080716,-170.870801)"
         id="path4524"
         style="fill:#ffff00;fill-rule:evenodd;stroke:#000000;stroke-width:1px;stroke-linecap:butt;stroke-linejoin:miter;stroke-opacity:1"
         d="m 86.776953,713.543 c -0.05198,0.0383 -1.21444,-0.69273 -3.019477,-1.87011 -1.542148,-1.00591 -3.553339,-2.33766 -5.74173,-3.79392 -2.927276,-1.94793 -6.171621,-4.11864 -9.034629,-6.03029 -4.368003,-2.91654 -7.848364,-5.23006 -7.96084,-5.22937 -0.0813,4.8e-4 -1.8699,1.26594 -4.45688,3.12038 -4.359478,3.12503 -10.986212,7.92265 -15.530734,11.15802 -2.901957,2.06599 -4.954869,3.49495 -5.026202,3.44457 -0.135332,-0.0956 2.261022,-8.70388 4.464357,-16.60072 1.855517,-6.65026 3.574145,-12.79596 3.528552,-12.92799 -0.04704,-0.13608 -5.482886,-4.20753 -11.210029,-8.50664 -6.429026,-4.82598 -13.225049,-9.93883 -13.177126,-10.09368 0.04492,-0.14522 7.504094,-0.41928 15.041865,-0.68107 7.660223,-0.26605 15.401641,-0.51941 15.525368,-0.61195 0.150326,-0.11249 3.750092,-10.8876 6.587389,-19.22185 1.794889,-5.27229 3.284661,-9.56777 3.403045,-9.56915 0.283073,-0.003 9.160249,24.22279 10.663077,27.92234 0.119195,0.29343 0.192003,0.45773 0.210453,0.47057 0.251026,0.17476 30.652678,0.41117 30.751588,0.70137 0.0445,0.13049 -4.803903,3.90657 -10.162392,8.04994 -6.558643,5.07137 -13.881485,10.69303 -13.932137,10.8538 -0.09209,0.2921 9.322852,29.23441 9.076482,29.41575" />
      <path
         transform="matrix(1.000000,0.000000,0.000000,1.000000,562.563475,-253.057743)"
         id="path8784"
         style="fill:#ffff00;fill-rule:evenodd;stroke:#000000;stroke-width:1px;stroke-linecap:butt;stroke-linejoin:miter;stroke-opacity:1"
         d="m 86.776953,713.543 c -0.05198,0.0383 -1.21444,-0.69273 -3.019477,-1.87011 -1.542148,-1.00591 -3.553339,-2.33766 -5.74173,-3.79392 -2.927276,-1.94793 -6.171621,-4.11864 -9.034629,-6.03029 -4.368003,-2.91654 -7.848364,-5.23006 -7.96084,-5.22937 -0.0813,4.8e-4 -1.8699,1.26594 -4.45688,3.12038 -4.359478,3.12503 -10.986212,7.92265 -15.530734,11.15802 -2.901957,2.06599 -4.954869,3.49495 -5.026202,3.44457 -0.135332,-0.0956 2.261022,-8.70388 4.464357,-16.60072 1.855517,-6.65026 3.574145,-12.79596 3.528552,-12.92799 -0.04704,-0.13608 -5.482886,-4.20753 -11.210029,-8.50664 -6.429026,-4.82598 -13.225049,-9.93883 -13.177126,-10.09368 0.04492,-0.14522 7.504094,-0.41928 15.041865,-0.68107 7.660223,-0.26605 15.401641,-0.51941 15.525368,-0.61195 0.150326,-0.11249 3.750092,-10.8876 6.587389,-19.22185 1.794889,-5.27229 3.284661,-9.56777 3.403045,-9.56915 0.283073,-0.003 9.160249,24.22279 10.663077,27.92234 0.119195,0.29343 0.192003,0.45773 0.210453,0.47057 0.251026,0.17476 30.652678,0.41117 30.751588,0.70137 0.0445,0.13049 -4.803903,3.90657 -10.162392,8.04994 -6.558643,5.07137 -13.881485,10.69303 -13.932137,10.8538 -0.09209,0.2921 9.322852,29.23441 9.076482,29.41575" />
      <path
         transform="matrix(1.000000,0.000000,0.000000,1.000000,548.982726,-335.071973)"
         id="path2269"
         style="fill:#ffff00;fill-rule:evenodd;stroke:#000000;stroke-width:1px;stroke-linecap:butt;stroke-linejoin:miter;stroke-opacity:1"
         d="m 86.776953,713.543 c -0.05198,0.0383 -1.21444,-0.69273 -3.019477,-1.87011 -1.542148,-1.00591 -3.553339,-2.33766 -5.74173,-3.79392 -2.927276,-1.94793 -6.171621,-4.11864 -9.034629,-6.03029 -4.368003,-2.91654 -7.848364,-5.23006 -7.96084,-5.22937 -0.0813,4.8e-4 -1.8699,1.26594 -4.45688,3.12038 -4.359478,3.12503 -10.986212,7.92265 -15.530734,11.15802 -2.901957,2.06599 -4.954869,3.49495 -5.026202,3.44457 -0.135332,-0.0956 2.261022,-8.70388 4.464357,-16.60072 1.855517,-6.65026 3.574145,-12.79596 3.528552,-12.92799 -0.04704,-0.13608 -5.482886,-4.20753 -11.210029,-8.50664 -6.429026,-4.82598 -13.225049,-9.93883 -13.177126,-10.09368 0.04492,-0.14522 7.504094,-0.41928 15.041865,-0.68107 7.660223,-0.26605 15.401641,-0.51941 15.525368,-0.61195 0.150326,-0.11249 3.750092,-10.8876 6.587389,-19.22185 1.794889,-5.27229 3.284661,-9.56777 3.403045,-9.56915 0.283073,-0.003 9.160249,24.22279 10.663077,27.92234 0.119195,0.29343 0.192003,0.45773 0.210453,0.47057 0.251026,0.17476 30.652678,0.41117 30.751588,0.70137 0.0445,0.13049 -4.803903,3.90657 -10.162392,8.04994 -6.558643,5.07137 -13.881485,10.69303 -13.932137,10.8538 -0.09209,0.2921 9.322852,29.23441 9.076482,29.41575" />
      <path
         transform="matrix(1.000000,0.000000,0.000000,1.000000,510.659662,-408.841531)"
         id="path4046"
         style="fill:#ffff00;fill-rule:evenodd;stroke:#000000;stroke-width:1px;stroke-linecap:butt;stroke-linejoin:miter;stroke-opacity:1"
         d="m 86.776953,713.543 c -0.05198,0.0383 -1.21444,-0.69273 -3.019477,-1.87011 -1.542148,-1.00591 -3.553339,-2.33766 -5.74173,-3.79392 -2.927276,-1.94793 -6.171621,-4.11864 -9.034629,-6.03029 -4.368003,-2.91654 -7.848364,-5.23006 -7.96084,-5.22937 -0.0813,4.8e-4 -1.8699,1.26594 -4.45688,3.12038 -4.359478,3.12503 -10.986212,7.92265 -15.530734,11.15802 -2.901957,2.06599 -4.954869,3.49495 -5.026202,3.44457 -0.135332,-0.0956 2.261022,-8.70388 4.464357,-16.60072 1.855517,-6.65026 3.574145,-12.79596 3.528552,-12.92799 -0.04704,-0.13608 -5.482886,-4.20753 -11.210029,-8.50664 -6.429026,-4.82598 -13.225049,-9.93883 -13.177126,-10.09368 0.04492,-0.14522 7.504094,-0.41928 15.041865,-0.68107 7.660223,-0.26605 15.401641,-0.51941 15.525368,-0.61195 0.150326,-0.11249 3.750092,-10.8876 6.587389,-19.22185 1.794889,-5.27229 3.284661,-9.56777 3.403045,-9.56915 0.283073,-0.003 9.160249,24.22279 10.663077,27.92234 0.119195,0.29343 0.192003,0.45773 0.210453,0.47057 0.251026,0.17476 30.652678,0.41117 30.751588,0.70137 0.0445,0.13049 -4.803903,3.90657 -10.162392,8.04994 -6.558643,5.07137 -13.881485,10.69303 -13.932137,10.8538 -0.09209,0.2921 9.322852,29.23441 9.076482,29.41575" />
      <path
         transform="matrix(1.000000,0.000000,0.000000,1.000000,451.400138,-467.142150)"
         id="path6892"
         style="fill:#ffff00;fill-rule:evenodd;stroke:#000000;stroke-width:1px;stroke-linecap:butt;stroke-linejoin:miter;stroke-opacity:1"
         d="m 86.776953,713.543 c -0.05198,0.0383 -1.21444,-0.69273 -3.019477,-1.87011 -1.542148,-1.00591 -3.553339,-2.33766 -5.74173,-3.79392 -2.927276,-1.94793 -6.171621,-4.11864 -9.034629,-6.03029 -4.368003,-2.91654 -7.848364,-5.23006 -7.96084,-5.22937 -0.0813,4.8e-4 -1.8699,1.26594 -4.45688,3.12038 -4.359478,3.12503 -10.986212,7.92265 -15.530734,11.15802 -2.901957,2.06599 -4.954869,3.49495 -5.026202,3.44457 -0.135332,-0.0956 2.261022,-8.70388 4.464357,-16.60072 1.855517,-6.65026 3.574145,-12.79596 3.528552,-12.92799 -0.04704,-0.13608 -5.482886,-4.20753 -11.210029,-8.50664 -6.429026,-4.82598 -13.225049,-9.93883 -13.177126,-10.09368 0.04492,-0.14522 7.504094,-0.41928 15.041865,-0.68107 7.660223,-0.26605 15.401641,-0.51941 15.525368,-0.61195 0.150326,-0.11249 3.750092,-10.8876 6.587389,-19.22185 1.794889,-5.27229 3.284661,-9.56777 3.403045,-9.56915 0.283073,-0.003 9.160249,24.22279 10.663077,27.92234 0.119195,0.29343 0.192003,0.45773 0.210453,0.47057 0.251026,0.17476 30.652678,0.41117 30.751588,0.70137 0.0445,0.13049 -4.803903,3.90657 -10.162392,8.04994 -6.558643,5.07137 -13.881485,10.69303 -13.932137,10.8538 -0.09209,0.2921 9.322852,29.23441 9.076482,29.41575" />
      <path
         transform="matrix(1.000000,0.000000,0.000000,1.000000,376.982442,-504.195774)"
         id="path0950"
         style="fill:#ffff00;fill-rule:evenodd;stroke:#000000;stroke-width:1px;stroke-linecap:butt;stroke-linejoin:miter;stroke-opacity:1"
         d="m 86.776953,713.543 c -0.05198,0.0383 -1.21444,-0.69273 -3.019477,-1.87011 -1.542148,-1.00591 -3.553339,-2.33766 -5.74173,-3.79392 -2.927276,-1.94793 -6.171621,-4.11864 -9.034629,-6.03029 -4.368003,-2.91654 -7.848364,-5.23006 -7.96084,-5.22937 -0.0813,4.8e-4 -1.8699,1.26594 -4.45688,3.12038 -4.359478,3.12503 -10.986212,7.92265 -15.530734,11.15802 -2.901957,2.06599 -4.954869,3.49495 -5.026202,3.44457 -0.135332,-0.0956 2.261022,-8.70388 4.464357,-16.60072 1.855517,-6.65026 3.574145,-12.79596 3.528552,-12.92799 -0.04704,-0.13608 -5.482886,-4.20753 -11.210029,-8.50664 -6.429026,-4.82598 -13.225049,-9.93883 -13.177126,-10.09368 0.04492,-0.14522 7.504094,-0.41928 15.041865,-0.68107 7.660223,-0.26605 15.401641,-0.51941 15.525368,-0.61195 0.150326,-0.11249 3.750092,-10.8876 6.587389,-19.22185 1.794889,-5.27229 3.284661,-9.56777 3.403045,-9.56915 0.283073,-0.003 9.160249,24.22279 10.663077,27.92234 0.119195,0.29343 0.192003,0.45773 0.210453,0.47057 0.251026,0.17476 30.652678,0.41117 30.751588,0.70137 0.0445,0.13049 -4.803903,3.90657 -10.162392,8.04994 -6.558643,5.07137 -13.881485,10.69303 -13.932137,10.8538 -0.09209,0.2921 9.322852,29.23441 9.076482,29.41575" />
      <path
         transform="matrix(1.000000,0.000000,0.000000,1.000000,294.753720,-516.396217)"
         id="path7505"
         style="fill:#ffff00;fill-rule:evenodd;stroke:#000000;stroke-width:1px;stroke-linecap:butt;stroke-linejoin:miter;stroke-opacity:1"
         d="m 86.776953,713.543 c -0.05198,0.0383 -1.21444,-0.69273 -3.019477,-1.87011 -1.542148,-1.00591 -3.553339,-2.33766 -5.74173,-3.79392 -2.927276,-1.94793 -6.171621,-4.11864 -9.034629,-6.03029 -4.368003,-2.91654 -7.848364,-5.23006 -7.96084,-5.22937 -0.0813,4.8e-4 -1.8699,1.26594 -4.45688,3.12038 -4.359478,3.12503 -10.986212,7.92265 -15.530734,11.15802 -2.901957,2.06599 -4.954869,3.49495 -5.026202,3.44457 -0.135332,-0.0956 2.261022,-8.70388 4.464357,-16.60072 1.855517,-6.65026 3.574145,-12.79596 3.528552,-12.92799 -0.04704,-0.13608 -5.482886,-4.20753 -11.210029,-8.50664 -6.429026,-4.82598 -13.225049,-9.93883 -13.177126,-10.09368 0.04492,-0.14522 7.504094,-0.41928 15.041865,-0.68107 7.660223,-0.26605 15.401641,-0.51941 15.525368,-0.61195 0.150326,-0.11249 3.750092,-10.8876 6.587389,-19.22185 1.794889,-5.27229 3.284661,-9.56777 3.403045,-9.56915 0.283073,-0.003 9.160249,24.22279 10.663077,27.92234 0.119195,0.29343 0.192003,0.45773 0.210453,0.47057 0.251026,0.17476 30.652678,0.41117 30.751588,0.70137 0.0445,0.13049 -4.803903,3.90657 -10.162392,8.04994 -6.558643,5.07137 -13.881485,10.69303 -13.932137,10.8538 -0.09209,0.2921 9.322852,29.23441 9.076482,29.41575" />
      <path
         transform="matrix(1.000000,0.000000,0.000000,1.000000,212.777151,-502.570500)"
         id="path1764"
         style="fill:#ffff00;fill-rule:evenodd;stroke:#000000;stroke-width:1px;stroke-linecap:butt;stroke-linejoin:miter;stroke-opacity:1"
         d="m 86.776953,713.543 c -0.05198,0.0383 -1.21444,-0.69273 -3.019477,-1.87011 -1.542148,-1.00591 -3.553339,-2.33766 -5.74173,-3.79392 -2.927276,-1.94793 -6.171621,-4.11864 -9.034629,-6.03029 -4.368003,-2.91654 -7.848364,-5.23006 -7.96084,-5.22937 -0.0813,4.8e-4 -1.8699,1.26594 -4.45688,3.12038 -4.359478,3.12503 -10.986212,7.92265 -15.530734,11.15802 -2.901957,2.06599 -4.954869,3.49495 -5.026202,3.44457 -0.135332,-0.0956 2.261022,-8.70388 4.464357,-16.60072 1.855517,-6.65026 3.574145,-12.79596 3.528552,-12.92799 -0.04704,-0.13608 -5.482886,-4.20753 -11.210029,-8.50664 -6.429026,-4.82598 -13.225049,-9.93883 -13.177126,-10.09368 0.04492,-0.14522 7.504094,-0.41928 15.041865,-0.68107 7.660223,-0.26605 15.401641,-0.51941 15.525368,-0.61195 0.150326,-0.11249 3.750092,-10.8876 6.587389,-19.22185 1.794889,-5.27229 3.284661,-9.56777 3.403045,-9.56915 0.283073,-0.003 9.160249,24.22279 10.663077,27.92234 0.119195,0.29343 0.192003,0.45773 0.210453,0.47057 0.251026,0.17476 30.652678,0.41117 30.751588,0.70137 0.0445,0.13049 -4.803903,3.90657 -10.162392,8.04994 -6.558643,5.07137 -13.881485,10.69303 -13.932137,10.8538 -0.09209,0.2921 9.322852,29.23441 9.076482,29.41575" />
      <path
         transform="matrix(1.000000,0.000000,0.000000,1.000000,139.144985,-463.975530)"
         id="path8964"
         style="fill:#ffff00;fill-rule:evenodd;stroke:#000000;stroke-width:1px;stroke-linecap:butt;stroke-linejoin:miter;stroke-opacity:1"
         d="m 86.776953,713.543 c -0.05198,0.0383 -1.21444,-0.69273 -3.019477,-1.87011 -1.542148,-1.00591 -3.553339,-2.33766 -5.74173,-3.79392 -2.927276,-1.94793 -6.171621,-4.11864 -9.034629,-6.03029 -4.368003,-2.91654 -7.848364,-5.23006 -7.96084,-5.22937 -0.0813,4.8e-4 -1.8699,1.26594 -4.45688,3.12038 -4.359478,3.12503 -10.986212,7.92265 -15.530734,11.15802 -2.901957,2.06599 -4.954869,3.49495 -5.026202,3.44457 -0.135332,-0.0956 2.261022,-8.70388 4.464357,-16.60072 1.855517,-6.65026 3.574145,-12.79596 3.528552,-12.92799 -0.04704,-0.13608 -5.482886,-4.20753 -11.210029,-8.50664 -6.429026,-4.82598 -13.225049,-9.93883 -13.177126,-10.09368 0.04492,-0.14522 7.504094,-0.41928 15.041865,-0.68107 7.660223,-0.26605 15.401641,-0.51941 15.525368,-0.61195 0.150326,-0.11249 3.750092,-10.8876 6.587389,-19.22185 1.794889,-5.27229 3.284661,-9.56777 3.403045,-9.56915 0.283073,-0.003 9.160249,24.22279 10.663077,27.92234 0.119195,0.29343 0.192003,0.45773 0.210453,0.47057 0.251026,0.17476 30.652678,0.41117 30.751588,0.70137 0.0445,0.13049 -4.803903,3.90657 -10.162392,8.04994 -6.558643,5.07137 -13.881485,10.69303 -13.932137,10.8538 -0.09209,0.2921 9.322852,29.23441 9.076482,29.41575" />
      <path
         transform="matrix(1.000000,0.000000,0.000000,1.000000,81.047299,-404.517632)"
         id="path5084"
         style="fill:#ffff00;fill-rule:evenodd;stroke:#000000;stroke-width:1px;stroke-linecap:butt;stroke-linejoin:miter;stroke-opacity:1"
         d="m 86.776953,713.543 c -0.05198,0.0383 -1.21444,-0.69273 -3.019477,-1.87011 -1.542148,-1.00591 -3.553339,-2.33766 -5.74173,-3.79392 -2.927276,-1.94793 -6.171621,-4.11864 -9.034629,-6.03029 -4.368003,-2.91654 -7.848364,-5.23006 -7.96084,-5.22937 -0.0813,4.8e-4 -1.8699,1.26594 -4.45688,3.12038 -4.359478,3.12503 -10.986212,7.92265 -15.530734,11.15802 -2.901957,2.06599 -4.954869,3.49495 -5.026202,3.44457 -0.135332,-0.0956 2.261022,-8.70388 4.464357,-16.60072 1.855517,-6.65026 3.574145,-12.79596 3.528552,-12.92799 -0.04704,-0.13608 -5.482886,-4.20753 -11.210029,-8.50664 -6.429026,-4.82598 -13.225049,-9.93883 -13.177126,-10.09368 0.04492,-0.14522 7.504094,-0.41928 15.041865,-0.68107 7.660223,-0.26605 15.401641,-0.51941 15.525368,-0.61195 0.150326,-0.11249 3.750092,-10.8876 6.587389,-19.22185 1.794889,-5.27229 3.284661,-9.56777 3.403045,-9.56915 0.283073,-0.003 9.160249,24.22279 10.663077,27.92234 0.119195,0.29343 0.192003,0.45773 0.210453,0.47057 0.251026,0.17476 30.652678,0.41117 30.751588,0.70137 0.0445,0.13049 -4.803903,3.90657 -10.162392,8.04994 -6.558643,5.07137 -13.881485,10.69303 -13.932137,10.8538 -0.09209,0.2921 9.322852,29.23441 9.076482,29.41575" />
      <path
         transform="matrix(1.000000,0.000000,0.000000,1.000000,44.227016,-329.981809)"
         id="path2663"
         style="fill:#ffff00;fill-rule:evenodd;stroke:#000000;stroke-width:1px;stroke-linecap:butt;stroke-linejoin:miter;stroke-opacity:1"
         d="m 86.776953,713.543 c -0.05198,0.0383 -1.21444,-0.69273 -3.019477,-1.87011 -1.542148,-1.00591 -3.553339,-2.33766 -5.74173,-3.79392 -2.927276,-1.94793 -6.171621,-4.11864 -9.034629,-6.03029 -4.368003,-2.91654 -7.848364,-5.23006 -7.96084,-5.22937 -0.0813,4.8e-4 -1.8699,1.26594 -4.45688,3.12038 -4.359478,3.12503 -10.986212,7.92265 -15.530734,11.15802 -2.901957,2.06599 -4.954869,3.49495 -5.026202,3.44457 -0.135332,-0.0956 2.261022,-8.70388 4.464357,-16.60072 1.855517,-6.65026 3.574145,-12.79596 3.528552,-12.92799 -0.04704,-0.13608 -5.482886,-4.20753 -11.210029,-8.50664 -6.429026,-4.82598 -13.225049,-9.93883 -13.177126,-10.09368 0.04492,-0.14522 7.504094,-0.41928 15.041865,-0.68107 7.660223,-0.26605 15.401641,-0.51941 15.525368,-0.61195 0.150326,-0.11249 3.750092,-10.8876 6.587389,-19.22185 1.794889,-5.27229 3.284661,-9.56777 3.403045,-9.56915 0.283073,-0.003 9.160249,24.22279 10.663077,27.92234 0.119195,0.29343 0.192003,0.45773 0.210453,0.47057 0.251026,0.17476 30.652678,0.41117 30.751588,0.70137 0.0445,0.13049 -4.803903,3.90657 -10.162392,8.04994 -6.558643,5.07137 -13.881485,10.69303 -13.932137,10.8538 -0.09209,0.2921 9.322852,29.23441 9.076482,29.41575" />
    </g>
    <path
       sodipodi:type="arc"
       style="fill:#241f1c;fill-rule:evenodd;stroke:#000000;stroke-width:1px;stroke-linecap:butt;stroke-linejoin:miter;stroke-opacity:1"
       id="path3645"
       sodipodi:cx="310.36032"
       sodipodi:cy="365.94482"
       sodipodi:rx="22.654037"
       sodipodi:ry="21.143768"
       d="m 333.01436,365.94482 a 22.654037,21.143768 0 1 1 -45.30808,0 22.654037,21.143768 0 1 1 45.30808,0 z"
       transform="matrix(0.56768293,0,0,0.60775876,183.07453,205.65299)" />
    <rect
       style="fill:#fff6d5;fill-rule:evenodd;stroke:#000000;stroke-width:0.70448643px;stroke-linecap:butt;stroke-linejoin:miter;stroke-opacity:1"
       id="rect3647"
       width="8.6019936"
       height="143.01596"
       x="352.50009"
       y="282.73227" />
    <rect
       style="fill:#fff6d5;fill-rule:evenodd;stroke:#000000;stroke-width:0.76547366px;stroke-linecap:butt;stroke-linejoin:miter;stroke-opacity:1"
       id="rect3647-2"
       width="13.300151"
       height="109.20496"
       x="513.07068"
       y="99.709938"
       transform="matrix(0.88093381,0.4732395,-0.47430863,0.88035863,0,0)" />
  </g>
</svg>
