<?xml version="1.0" encoding="UTF-8" standalone="no"?>
<!-- Created with Inkscape (http://www.inkscape.org/) -->

<svg
   xmlns:dc="http://purl.org/dc/elements/1.1/"
   xmlns:cc="http://creativecommons.org/ns#"
   xmlns:rdf="http://www.w3.org/1999/02/22-rdf-syntax-ns#"
   xmlns:svg="http://www.w3.org/2000/svg"
   xmlns="http://www.w3.org/2000/svg"
   xmlns:sodipodi="http://sodipodi.sourceforge.net/DTD/sodipodi-0.dtd"
   xmlns:inkscape="http://www.inkscape.org/namespaces/inkscape"
   width="362"
   height="283"
   id="svg2"
   version="1.1"
   inkscape:version="0.48.4 r9939"
   sodipodi:docname="gray-memory.svg">
  <defs
     id="defs4" />
  <sodipodi:namedview
     id="base"
     pagecolor="#ffffff"
     bordercolor="#666666"
     borderopacity="1.0"
     inkscape:pageopacity="0.0"
     inkscape:pageshadow="2"
     inkscape:zoom="5.3365483"
     inkscape:cx="174.20758"
     inkscape:cy="139.2204"
     inkscape:document-units="px"
     inkscape:current-layer="layer1"
     showgrid="false"
     inkscape:window-width="1855"
     inkscape:window-height="1056"
     inkscape:window-x="65"
     inkscape:window-y="24"
     inkscape:window-maximized="1" />
  <metadata
     id="metadata7">
    <rdf:RDF>
      <cc:Work
         rdf:about="">
        <dc:format>image/svg+xml</dc:format>
        <dc:type
           rdf:resource="http://purl.org/dc/dcmitype/StillImage" />
        <dc:title />
      </cc:Work>
    </rdf:RDF>
  </metadata>
  <g
     inkscape:label="Layer 1"
     inkscape:groupmode="layer"
     id="layer1">
    <g
       transform="matrix(0.54108247,0,0,1.8481471,-111.42858,-51.428573)"
       style="font-size:99.77680206000000851px;font-style:normal;font-weight:normal;line-height:125%;letter-spacing:0px;word-spacing:0px;fill:#c8c4b7;stroke:#800080;stroke-width:2.50000000000000000;font-family:Sans"
       id="text2985">
      <path
         d="m 287.22508,71.910075 19.87741,0 0.77951,-11.302841 8.18481,0.779507 -0.7795,10.523334 56.12445,0 0,7.40531 -56.90396,0 c -2.59839,29.101595 -11.17295,52.356845 -25.72371,69.765815 l -5.45654,-7.40531 c 12.47208,-15.33028 20.0073,-36.11709 22.60568,-62.360505 l -18.70815,0 0,-7.40531 m 47.16013,13.251607 8.18482,0 0,22.995438 c -7e-5,1.81888 2.46837,6.75574 7.40531,14.81062 4.93679,8.0549 12.99168,14.6807 24.16469,19.87741 l -5.45654,8.18481 c -13.77136,-7.79506 -23.25534,-17.53888 -28.45198,-29.23148 -3.89759,12.73194 -14.03116,22.21592 -30.40075,28.45197 l -4.67703,-7.4053 c 8.31469,-3.11803 14.55074,-6.75572 18.70815,-10.91309 4.41715,-4.15736 7.27534,-8.57455 8.57457,-13.25161 1.29912,-4.93684 1.9487,-16.10976 1.94876,-33.518768 m 26.50321,7.405309 7.79507,2.338519 c -3.63779,10.91312 -7.53531,19.22785 -11.6926,24.9442 l -6.6258,-5.06679 c 4.67696,-6.75569 8.18474,-14.16099 10.52333,-22.215929 m -39.75482,2.338519 7.40531,2.338519 c -3.11807,10.133611 -6.88568,18.318421 -11.30284,24.554451 l -6.23605,-4.67704 c 4.677,-7.27536 8.05486,-14.68066 10.13358,-22.21593"
         id="path2990"
         inkscape:connector-curvature="0"
         style="fill:#c8c4b7" />
      <path
         d="m 411.16658,60.217481 7.79506,2.338519 -3.89753,6.23605 33.12902,0 0,6.23605 c -2.33859,4.417264 -4.80702,8.314792 -7.40531,11.692594 l 23.38518,0 0,33.129016 -61.97074,0 0,17.14914 c -3e-5,1.55901 1.16923,2.59835 3.50777,3.11802 2.33849,0.51967 10.39338,0.77951 24.1647,0.77951 19.22775,0 30.14083,-0.64959 32.73926,-1.94877 1.03926,-0.51966 2.0786,-4.54711 3.11803,-12.08234 l 7.40531,4.28728 c -1.29927,7.79507 -3.37796,12.73193 -6.23605,14.81062 -2.07877,1.55901 -14.42094,2.33851 -37.02655,2.33852 -17.40901,-1e-5 -27.6725,-0.6496 -30.7905,-1.94877 -3.11804,-1.03934 -4.67705,-3.37786 -4.67704,-7.01555 l 0,-47.549885 c -2.33853,1.818896 -4.67705,3.507824 -7.01555,5.066791 l -3.89753,-7.015557 c 12.99175,-9.354014 22.2159,-19.22775 27.67247,-29.621238 m -10.91309,26.503213 31.57,0 c 3.11797,-3.637638 5.45649,-7.27533 7.01556,-10.913088 l -28.84173,0 c -3.89756,4.677099 -7.1455,8.314791 -9.74383,10.913088 m 1.94877,26.113456 23.38518,0 0,-19.097899 -23.38518,0 0,19.097899 m 30.79049,0 23.77494,0 0,-19.097899 -23.77494,0 0,19.097899"
         id="path2992"
         inkscape:connector-curvature="0"
         style="fill:#c8c4b7" />
      <path
         d="M 537.05684,60.996987 544.8519,62.556 c -1.29924,4.936947 -2.98817,9.743897 -5.06679,14.420866 l 30.40075,0 c -1e-4,34.298304 -1.16935,55.474874 -3.50778,63.529764 -1.81894,6.49588 -6.10622,9.74382 -12.86186,9.74382 -3.37793,0 -7.40537,-0.51967 -12.08234,-1.55901 l -1.94877,-8.18481 c 6.49582,1.03934 11.17285,1.55901 14.03111,1.55901 3.11795,0 5.06671,-1.81885 5.8463,-5.45654 1.55893,-7.01555 2.33844,-24.42451 2.33852,-52.226925 l -26.11346,0 c -3.11808,5.456596 -6.49594,10.003711 -10.13358,13.64136 l -5.8463,-5.456544 c 7.79502,-8.574511 13.51139,-19.097836 17.14914,-31.570004 m 3.11802,38.585561 c 3.89747,5.716412 7.14541,12.082372 9.74383,19.097902 l -7.40531,3.50778 c -2.59841,-7.27537 -5.84635,-13.77125 -9.74382,-19.48766 l 7.4053,-3.118022 m -21.82617,-26.11346 0,70.545312 -7.01556,0 0,-3.11802 -17.92864,0 0,5.8463 -7.01556,0 0,-73.273592 8.57457,0 c 1.29916,-4.157295 2.20858,-8.444575 2.72827,-12.861854 l 8.18482,1.559013 c -1.03937,4.157442 -2.20863,7.925051 -3.50778,11.302841 l 15.97988,0 m -7.01556,30.010992 0,-22.605683 -17.92864,0 0,22.605683 17.92864,0 m -17.92864,7.40531 0,22.60568 17.92864,0 0,-22.60568 -17.92864,0"
         id="path2994"
         inkscape:connector-curvature="0"
         style="fill:#c8c4b7" />
      <path
         d="m 597.85834,60.607234 c 4.41717,5.196784 8.05487,10.653323 10.91308,16.369632 l -7.40531,4.287284 c -2.59837,-5.716313 -6.10615,-11.172852 -10.52333,-16.369631 l 7.01556,-4.287285 m -14.81062,28.841732 21.04667,0 0,45.211364 8.18481,-8.96432 5.06679,4.67704 c -3.63773,4.93687 -8.5746,9.87374 -14.81062,14.81061 l -5.84629,-5.06679 0,-43.652347 -13.64136,0 0,-7.015557 m 39.36506,-25.333954 44.82161,0 0,43.652348 -7.79506,0 0,-5.06679 -26.50321,0 0,33.90853 c -6e-5,1.29918 0.64953,2.33852 1.94876,3.11802 1.29912,0.51967 4.41714,0.77951 9.35408,0.77951 10.91301,0 17.14905,-1.03934 18.70815,-3.11803 1.81876,-2.07868 3.11794,-7.27538 3.89753,-15.59012 l 7.40531,1.94876 c -1.03944,11.6926 -3.50787,18.83807 -7.40531,21.43642 -2.3386,2.07868 -9.87382,3.11802 -22.60568,3.11803 -8.83446,-1e-5 -14.291,-0.6496 -16.36963,-1.94877 -1.8189,-1.29918 -2.72832,-3.63769 -2.72827,-7.01555 l 0,-44.042107 34.29827,0 0,-23.774941 -37.02655,0 0,-7.40531"
         id="path2996"
         inkscape:connector-curvature="0"
         style="fill:#c8c4b7" />
      <path
         d="m 698.02488,60.607234 7.40531,0 0,14.810619 c 5.19668,3.897594 9.61388,7.665203 13.25161,11.302841 l -5.06679,7.015557 c -2.59839,-3.37781 -5.32666,-6.495832 -8.18482,-9.354076 l 0,65.868275 -7.40531,0 0,-89.643216 m -11.69259,19.487657 7.40531,1.559012 c -0.77952,10.133631 -2.46845,19.357777 -5.06679,27.672477 l -7.01556,-3.50778 c 2.59835,-8.574527 4.15736,-17.149088 4.67704,-25.723709 m 30.40074,-14.810619 49.1089,0 0,6.23605 -35.46754,48.329388 c -4.41725,6.23607 -6.62585,10.9131 -6.6258,14.03111 -5e-5,2.07869 0.77946,3.50779 2.33852,4.28729 1.8188,0.77951 7.66509,1.16926 17.53889,1.16926 l 7.40531,0 c 5.45647,0 8.83432,-0.90942 10.13358,-2.72827 1.29909,-1.81885 2.33843,-6.36596 3.11803,-13.64136 l 8.18481,2.33851 c -1.03943,9.87376 -2.9882,15.84997 -5.84629,17.92865 -2.59845,2.33851 -7.79515,3.50777 -15.59013,3.50778 l -10.13358,0 c -10.65331,-1e-5 -17.66886,-1.03935 -21.04667,-3.11803 -3.11806,-1.81885 -4.67708,-5.06679 -4.67704,-9.74383 -4e-5,-4.15735 3.2479,-10.91307 9.74383,-20.26716 l 30.40074,-40.924079 -38.58556,0 0,-7.405309"
         id="path2998"
         inkscape:connector-curvature="0"
         style="fill:#c8c4b7" />
    </g>
  </g>
</svg>
