<svg xmlns="http://www.w3.org/2000/svg" viewBox="0 0 27 27">
<path d="M1 1h7v7h-7zM11 1h1v1h1v1h1v-1h-1v-1h4v1h1v1h-1v2h1v1h-2v-1h-1v-1h1v-1h-1v1h-1v1h-1v1h-1v-3h-1zM19 1h7v7h-7zM2 2v5h5v-5zM20 2v5h5v-5zM3 3h3v3h-3zM9 3h2v1h-1v4h1v2h-1v-1h-1zM21 3h3v3h-3zM11 6h1v2h-1zM13 7h1v3h-1v-1h-1v-1h1zM15 7h1v2h-1zM17 7h1v2h-1zM1 9h1v1h-1zM3 9h5v1h-2v2h-2v1h1v1h2v1h-2v2h-1v-2h-1v-1h-1v-3h3v-1h-2zM19 9h5v2h-1v-1h-4zM8 10h1v1h-1zM11 10h1v1h-1zM14 10h3v1h1v2h-1v1h-2v-1h1v-1h-1v1h-1v1h-2v1h2v1h-1v2h-3v1h-1v-1h-2v-1h1v-1h1v-1h-1v-1h2v1h1v-1h-1v-1h2v-2h1v1h1zM7 11h1v1h-1zM10 11h1v1h-1zM19 11h1v2h4v3h-1v-2h-2v2h-1v-2h-2v-1h1zM21 11h2v1h-2zM24 11h2v3h-1v-2h-1zM6 12h1v1h-1zM8 12h1v1h-1zM7 13h1v1h-1zM1 14h1v4h-1zM17 14h1v2h2v1h2v2h4v1h-1v2h-3v1h-1v1h-1v-1h-2v-1h-3v-1h2v-2h-1v1h-1v1h-1v1h-1v-2h1v-1h-1v-1h3v-1h1v-1h-1v-1h1zM7 15h1v1h-1zM25 15h1v2h-2v-1h1zM10 16v1h2v-1zM15 16h1v1h-1zM3 17h1v1h-1zM23 17h1v1h-1zM18 18v3h3v-3zM1 19h7v7h-7zM11 19h1v1h-1zM19 19h1v1h-1zM2 20v5h5v-5zM9 20h1v3h1v1h-2zM22 20v1h2v-1zM3 21h3v3h-3zM11 21h1v1h-1zM25 22h1v4h-4v-2h1v1h2zM12 23h2v1h-1v2h-1v-1h-1v-1h1zM16 23h1v1h2v1h1v1h-2v-1h-3v-1h1zM9 25h2v1h-2z"/>
<circle cx="13.5" cy="13.5" r="2.5" fill="lime" />
<text font-size="1.5pt" x="11.5" y="11.5" font-color="white">
  <tspan dy="2">d.y.j</tspan>
</text>
</svg>
